<svg xmlns="http://www.w3.org/2000/svg" width="256" height="256" viewBox="0 0 100 100"><rect width="100" height="100" rx="20" fill="#575757"></rect><path fill="#fff" d="M31.52 56.93L26.37 56.93L26.37 70.20Q25.78 70.33 24.69 70.53Q23.60 70.72 22.35 70.72L22.35 70.72Q19.84 70.72 18.81 69.80Q17.79 68.88 17.79 66.70L17.79 66.70L17.79 33.57Q17.79 32.31 18.45 31.65Q19.11 30.99 20.30 30.60L20.30 30.60Q21.36 30.27 22.64 30.00Q23.93 29.74 25.32 29.57Q26.70 29.41 28.09 29.34Q29.47 29.28 30.73 29.28L30.73 29.28Q39.44 29.28 43.83 33.00Q48.22 36.73 48.22 43.07L48.22 43.07Q48.22 49.41 43.93 53.17Q39.64 56.93 31.52 56.93L31.52 56.93ZM26.31 50.07L30.99 50.07Q34.95 50.07 37.23 48.35Q39.51 46.63 39.51 43.07L39.51 43.07Q39.51 39.64 37.36 37.92Q35.22 36.21 31.12 36.21L31.12 36.21Q28.29 36.21 26.31 36.60L26.31 36.60L26.31 50.07ZM60.23 70.39L60.23 70.39Q58.12 70.39 56.90 69.14Q55.68 67.89 55.68 65.77L55.68 65.77L55.68 30.20Q56.20 30.07 57.36 29.87Q58.51 29.67 59.64 29.67L59.64 29.67Q62.01 29.67 63.13 30.53Q64.26 31.39 64.26 33.70L64.26 33.70L64.26 63.33L81.22 63.33Q81.55 63.86 81.88 64.75Q82.21 65.64 82.21 66.70L82.21 66.70Q82.21 68.48 81.38 69.44Q80.56 70.39 79.11 70.39L79.11 70.39L60.23 70.39Z"></path></svg>